HIERARCHY
ROOT pelvis
{
  OFFSET 0 100 0
  CHANNELS 6 Xposition Yposition Zposition Zrotation Xrotation Yrotation
  JOINT pelvis_right_femur
  {
    OFFSET -10.78128 -3.44521 -0.5502486
    CHANNELS 3 Zrotation Xrotation Yrotation
    JOINT right_femur_tibia
    {
      OFFSET -0.8047443 -44.0398 -0.1307829
      CHANNELS 3 Zrotation Xrotation Yrotation
      JOINT right_tibia_foot
      {
        OFFSET 3.006224 -47.83518 -5
        CHANNELS 3 Zrotation Xrotation Yrotation
        End Site
        {
          OFFSET 0 -5 15
        }
      }
    }
  }
  JOINT pelvis_left_femur
  {
    OFFSET 10.78128 -3.44521 -0.5502486
    CHANNELS 3 Zrotation Xrotation Yrotation
    JOINT left_femur_tibia
    {
      OFFSET 0.8047443 -44.0398 -0.1307829
      CHANNELS 3 Zrotation Xrotation Yrotation
      JOINT left_tibia_foot
      {
        OFFSET -4.370144 -48.10324 -4.275266
        CHANNELS 3 Zrotation Xrotation Yrotation
        End Site
        {
          OFFSET 0 -5 15
        }
      }
    }
  }
  JOINT pelvis_spine1
  {
    OFFSET 0 6.468898 -3.129235
    CHANNELS 3 Zrotation Xrotation Yrotation
    JOINT spine1
    {
      OFFSET 0 23.15396 4.99043
      CHANNELS 3 Zrotation Xrotation Yrotation
      JOINT spine2
      {
        OFFSET 0 20.79997 -5.064912
        CHANNELS 3 Zrotation Xrotation Yrotation
        JOINT neck
        {
          OFFSET 0 14.38658 9.616178
          CHANNELS 3 Zrotation Xrotation Yrotation
          End Site
          {
            OFFSET 0 20 0
          }
        }
      }
      JOINT right_manubrium
      {
        OFFSET -5.722621 16.35077 3.967754
        CHANNELS 3 Zrotation Xrotation Yrotation
        JOINT right_clavicle
        {
          OFFSET -13.16364 1.694482 -4.693211
          CHANNELS 3 Zrotation Xrotation Yrotation
          JOINT right_humerus
          {
            OFFSET -28.5034 -0.3100689 -2.792744
            CHANNELS 3 Zrotation Xrotation Yrotation
            JOINT right_radius
            {
              OFFSET -25.15693 0.02248979 -1.271978
              CHANNELS 3 Zrotation Xrotation Yrotation
              End Site
              {
                OFFSET -15 0 0
              }
            }
          }
        }
      }
      JOINT left_manubrium
      {
        OFFSET 5.722621 16.35077 3.967754
        CHANNELS 3 Zrotation Xrotation Yrotation
        JOINT left_clavicle
        {
          OFFSET 13.16364 1.694482 -4.693211
          CHANNELS 3 Zrotation Xrotation Yrotation
          JOINT left_humerus
          {
            OFFSET 29.39168 -1.063119 -2.237045
            CHANNELS 3 Zrotation Xrotation Yrotation
            JOINT left_radius
            {
              OFFSET 24.59957 -0.9528479 0.9047498
              CHANNELS 3 Zrotation Xrotation Yrotation
              End Site
              {
                OFFSET 15 -0 -0
              }
            }
          }
        }
      }
    }
  }
}
MOTION
Frames: 9
Frame Time: 0.0416666666667
-823.582 110.9407 -387.226 7.870234 -0.9169419 95.50091 6.186604 13.98535 1.113348 -0 20.36724 -0 -6.584531 -13.82396 -0.8087115 3.834076 -16.74112 -4.415475 -0 12.27741 -0 5.034872 -0.8232441 13.24653 1.560143 -6.053604 7.216813 0.496748 17.34103 -5.376846 1.552006 18.41606 2.002677 0.2875908 -18.94226 4.465126 2.930079 -31.13539 13.78966 83.74571 12.186 -7.318305 -0 0 30.61435 -27.19137 23.92029 21.27806 2.780249 -22.43145 -7.206427 -97.92623 13.1867 37.18884 0 0 -6.747115 3.840551 15.42616 9.720867
-817.8559 110.9258 -389.1446 7.861188 -0.9919597 94.95783 6.186604 13.98535 1.113348 -0 20.36724 -0 -6.584531 -13.82396 -0.8087115 3.834076 -16.74112 -4.415475 -0 12.27741 -0 5.034872 -0.8232441 13.24653 1.560143 -6.053604 7.216813 0.496748 17.34103 -5.376846 1.552006 18.41606 2.002677 0.2875908 -18.94226 4.465126 2.930079 -31.13539 13.78966 83.74571 12.186 -7.318305 -0 0 30.61435 -27.19137 23.92029 21.27806 2.780249 -22.43145 -7.206427 -97.92623 13.1867 37.18884 0 0 -6.747115 3.840551 15.42616 9.720867
-812.1116 110.911 -391.0083 7.85143 -1.066888 94.41473 6.186604 13.98535 1.113348 -0 20.36724 -0 -6.584531 -13.82396 -0.8087115 3.834076 -16.74112 -4.415475 -0 12.27741 -0 5.034872 -0.8232441 13.24653 1.560143 -6.053604 7.216813 0.496748 17.34103 -5.376846 1.552006 18.41606 2.002677 0.2875908 -18.94226 4.465126 2.930079 -31.13539 13.78966 83.74571 12.186 -7.318305 -0 0 30.61435 -27.19137 23.92029 21.27806 2.780249 -22.43145 -7.206427 -97.92623 13.1867 37.18884 0 0 -6.747115 3.840551 15.42616 9.720867
-806.3499 110.8961 -392.817 7.840962 -1.141721 93.87159 6.186604 13.98535 1.113348 -0 20.36724 -0 -6.584531 -13.82396 -0.8087115 3.834076 -16.74112 -4.415475 -0 12.27741 -0 5.034872 -0.8232441 13.24653 1.560143 -6.053604 7.216813 0.496748 17.34103 -5.376846 1.552006 18.41606 2.002677 0.2875908 -18.94226 4.465126 2.930079 -31.13539 13.78966 83.74571 12.186 -7.318305 -0 0 30.61435 -27.19137 23.92029 21.27806 2.780249 -22.43145 -7.206427 -97.92623 13.1867 37.18884 0 0 -6.747115 3.840551 15.42616 9.720867
-800.5711 110.8812 -394.5704 7.829785 -1.216451 93.32843 6.186604 13.98535 1.113348 -0 20.36724 -0 -6.584531 -13.82396 -0.8087115 3.834076 -16.74112 -4.415475 -0 12.27741 -0 5.034872 -0.8232441 13.24653 1.560143 -6.053604 7.216813 0.496748 17.34103 -5.376846 1.552006 18.41606 2.002677 0.2875908 -18.94226 4.465126 2.930079 -31.13539 13.78966 83.74571 12.186 -7.318305 -0 0 30.61435 -27.19137 23.92029 21.27806 2.780249 -22.43145 -7.206427 -97.92623 13.1867 37.18884 0 0 -6.747115 3.840551 15.42616 9.720867
-794.7757 110.8663 -396.2685 7.8179 -1.291072 92.78524 6.186604 13.98535 1.113348 -0 20.36724 -0 -6.584531 -13.82396 -0.8087115 3.834076 -16.74112 -4.415475 -0 12.27741 -0 5.034872 -0.8232441 13.24653 1.560143 -6.053604 7.216813 0.496748 17.34103 -5.376846 1.552006 18.41606 2.002677 0.2875908 -18.94226 4.465126 2.930079 -31.13539 13.78966 83.74571 12.186 -7.318305 -0 0 30.61435 -27.19137 23.92029 21.27806 2.780249 -22.43145 -7.206427 -97.92623 13.1867 37.18884 0 0 -6.747115 3.840551 15.42616 9.720867
-788.9644 110.8514 -397.9111 7.805307 -1.365577 92.24202 6.186604 13.98535 1.113348 -0 20.36724 -0 -6.584531 -13.82396 -0.8087115 3.834076 -16.74112 -4.415475 -0 12.27741 -0 5.034872 -0.8232441 13.24653 1.560143 -6.053604 7.216813 0.496748 17.34103 -5.376846 1.552006 18.41606 2.002677 0.2875908 -18.94226 4.465126 2.930079 -31.13539 13.78966 83.74571 12.186 -7.318305 -0 0 30.61435 -27.19137 23.92029 21.27806 2.780249 -22.43145 -7.206427 -97.92623 13.1867 37.18884 0 0 -6.747115 3.840551 15.42616 9.720867
-783.1377 110.8365 -399.498 7.792008 -1.43996 91.69876 6.186604 13.98535 1.113348 -0 20.36724 -0 -6.584531 -13.82396 -0.8087115 3.834076 -16.74112 -4.415475 -0 12.27741 -0 5.034872 -0.8232441 13.24653 1.560143 -6.053604 7.216813 0.496748 17.34103 -5.376846 1.552006 18.41606 2.002677 0.2875908 -18.94226 4.465126 2.930079 -31.13539 13.78966 83.74571 12.186 -7.318305 -0 0 30.61435 -27.19137 23.92029 21.27806 2.780249 -22.43145 -7.206427 -97.92623 13.1867 37.18884 0 0 -6.747115 3.840551 15.42616 9.720867
-777.296 110.8216 -401.0291 7.778003 -1.514212 91.15547 6.186604 13.98535 1.113348 -0 20.36724 -0 -6.584531 -13.82396 -0.8087115 3.834076 -16.74112 -4.415475 -0 12.27741 -0 5.034872 -0.8232441 13.24653 1.560143 -6.053604 7.216813 0.496748 17.34103 -5.376846 1.552006 18.41606 2.002677 0.2875908 -18.94226 4.465126 2.930079 -31.13539 13.78966 83.74571 12.186 -7.318305 -0 0 30.61435 -27.19137 23.92029 21.27806 2.780249 -22.43145 -7.206427 -97.92623 13.1867 37.18884 0 0 -6.747115 3.840551 15.42616 9.720867
